# xmcd
#
# Track frame offsets:
#	150
#	18145
#	33727
#	49440
#	66783
#	80019
#	95734
#	109074
#	122409
#	138341
#	155583
#	173122
#	189563
#	200692
#	215939
#	228859
#	243045
#	257903
#	271194
#
# Disc length: 3823 seconds
#
# Revision: 1
# Processed by: cddbd v1.5.2PL0 Copyright (c) Steve Scherf et al.
# Submitted via: audiograbber 1.82.02
#
DISCID=130eed13
DTITLE=Various Artist  - Country Radio - February 2013
DYEAR=20
DGENRE=Country
TTITLE0=Carrie Underwood - Two Black Cadillacs
TTITLE1=Cledus T. Judd - Honeymoon
TTITLE2=Kix Brooks - Moonshine Road
TTITLE3=Lee Brice - I Drive Your Truck
TTITLE4=Jake Owen - One That Got Away, The (Half Naked Mix)
TTITLE5=Miranda Lambert - Fastest Girl In Town (Live From The 46th CMA Awards)
TTITLE6=Big and Rich - Party Like Cowboyz (Single Edit)
TTITLE7=Big and Rich - Party Like Cowboyz (Single Edit and Alternate Intro)
TTITLE8=Big and Rich - Party Like Cowboyz (Galactic Ver)
TTITLE9=Train (Ft. Ashley Monroe) - Bruises
TTITLE10=JB and The Moon - Kiss Me That Way
TTITLE11=Tim McGraw - One Of Those Nights
TTITLE12=Raelynn - Boyfriend
TTITLE13=Chris Jansen - Better I Don't
TTITLE14=Miranda Lambert - Mama's Broken Heart
TTITLE15=Aaron Russe - Take Me Back To Mayberry
TTITLE16=Randy Rogers Band - Fuzzy
TTITLE17=High Valley - Love You For A long Time
TTITLE18=Haley Yelton - Waiting For The Wind
EXTD=
EXTT0=
EXTT1=
EXTT2=
EXTT3=
EXTT4=
EXTT5=
EXTT6=
EXTT7=
EXTT8=
EXTT9=
EXTT10=
EXTT11=
EXTT12=
EXTT13=
EXTT14=
EXTT15=
EXTT16=
EXTT17=
EXTT18=
PLAYORDER=
